<svg xmlns="http://www.w3.org/2000/svg" viewBox="0 0 1024 1024"><path fill="#BBB" d="M816.6 600.7c-50 0-71.9-58.2-91.3-109.5-14.9-39.6-31.8-84.4-55-84.4s-40.1 44.8-55 84.4C595.9 542.5 574 600.7 524 600.7s-71.9-58.2-91.3-109.5c-14.9-39.6-31.8-84.4-55-84.4s-40.1 44.8-55 84.4c-19.4 51.3-41.3 109.5-91.3 109.5-10.7 0-19.4-8.7-19.4-19.4s8.7-19.4 19.4-19.4c23.2 0 40.1-44.8 55-84.4 19.4-51.3 41.3-109.5 91.3-109.5s71.9 58.2 91.3 109.5c14.9 39.6 31.8 84.4 55 84.4s40.1-44.8 55-84.4c19.4-51.3 41.3-109.5 91.3-109.5s71.9 58.2 91.3 109.5c14.9 39.6 31.8 84.4 55 84.4 10.7 0 19.4 8.7 19.4 19.4s-8.7 19.4-19.4 19.4z"/></svg>