<svg xmlns="http://www.w3.org/2000/svg" viewBox="0 0 1024 1024"><path fill="#FFF" d="M488.3 134.3v90.1c7 .1 12.3 5.8 12.3 12.9 0 7-5.4 12.7-12.3 12.9v637.2h51.5V134.3h-51.5zm25 692.5c-7.1 0-12.9-5.8-12.9-12.9 0-7.1 5.8-12.9 12.9-12.9s12.9 5.8 12.9 12.9c0 7.1-5.8 12.9-12.9 12.9zm0-229.9c-7.1 0-12.9-5.8-12.9-12.9 0-7.1 5.8-12.9 12.9-12.9s12.9 5.8 12.9 12.9c0 7.1-5.8 12.9-12.9 12.9zm0-53.5c-7.1 0-12.9-5.8-12.9-12.9 0-7.1 5.8-12.9 12.9-12.9s12.9 5.8 12.9 12.9c0 7.1-5.8 12.9-12.9 12.9zm0-53.5c-7.1 0-12.9-5.8-12.9-12.9 0-7.1 5.8-12.9 12.9-12.9s12.9 5.8 12.9 12.9c0 7.1-5.8 12.9-12.9 12.9zm0-53.5c-7.1 0-12.9-5.8-12.9-12.9s5.8-12.9 12.9-12.9 12.9 5.8 12.9 12.9-5.8 12.9-12.9 12.9zm0-53.5c-7.1 0-12.9-5.8-12.9-12.9s5.8-12.9 12.9-12.9 12.9 5.8 12.9 12.9-5.8 12.9-12.9 12.9zm0-53.5c-7.1 0-12.9-5.8-12.9-12.9 0-7.1 5.8-12.9 12.9-12.9s12.9 5.8 12.9 12.9c0 7.1-5.8 12.9-12.9 12.9z" opacity=".8"/><path fill="#FFF" d="M538.8 269c2.7 0 5 2.2 5 5 0 2.7-2.2 5-5 5h-49.5c-2.7 0-5-2.2-5-5 0-2.7 2.2-5 5-5h49.5zm0 491.5c2.7 0 5 2.2 5 5 0 2.7-2.2 5-5 5h-49.5c-2.7 0-5-2.2-5-5 0-2.7 2.2-5 5-5h49.5zm5-623.7v12.7c0 1.4-1.2 2.6-2.6 2.6h-54.3c-1.4 0-2.6-1.2-2.6-2.6v-12.7c0-1.4 1.2-2.6 2.6-2.6h54.3c1.4.1 2.6 1.2 2.6 2.6zm0 735.3v12.7c0 1.4-1.2 2.6-2.6 2.6h-54.3c-1.4 0-2.6-1.2-2.6-2.6v-12.7c0-1.4 1.2-2.6 2.6-2.6h54.3c1.4 0 2.6 1.1 2.6 2.6z"/></svg>