<svg xmlns="http://www.w3.org/2000/svg" viewBox="0 0 1024 1024"><path fill="#FFF" d="M587.1 679.6c-33.3-58.2-37.5-184.5-37.8-199.4l.8-277.7c.1-26.2-20.9-48.2-46.7-49-13.1-.4-25.6 4.4-35 13.5-9.4 9.1-14.5 21.3-14.5 34.4l-.2 127.5c-2.3-3.4-5.7-6.1-9.9-7.4-9.8-3.1-20.1 2.3-23.2 12-2.1 6.8-.1 13.8 4.5 18.5v9.2c0 2.5 1 4.8 2.6 6.5l-1 437.6c0 .7 0 1.4.1 2.1.1 1.6.4 3.2.9 4.7.7 2.2 1.6 4.2 2.9 6 2.5 3.7 6.1 6.6 10.6 8.3 4.4 1.7 9.1 1.9 13.4.9 1.1-.3 2.1-.6 3.2-1 3.1-1.3 5.9-3.3 8.3-5.9.7-.8 1.3-1.6 1.9-2.5.5-.7 1-1.5 1.4-2.3.1-.1.1-.2.2-.3 1.5-3.1 2.3-6.4 2.3-9.9l.2-88.1c7.4 18 34.4 32.2 67.2 33.7 39.3 1.8 72-15.2 73.1-38 .4-12.9-9.4-25.1-25.3-33.4zM450.4 808.8c-.4.1-.9.2-1.3.2-.5 0-1-.1-1.3-.3-.3-.1-.6-.3-1-.6-.2-.2-.4-.3-.6-.6-.4-.5-.7-1.2-.7-2.2l.6-265.5h7.3l-.4 265.7c0 .9-.5 1.7-1.1 2.3-.2.2-.3.4-.5.5-.4.2-.7.4-1 .5zm3-282.7h-7.3l.1-42.9h7.2v42.9zm76.9-10.7c-3.4 44.7-12.5 119.5-35.6 161.6-11 5.2-19.1 12.4-22.7 20.8l.3-186.7 58 .2v4.1zm.7-229.8l-58.2-.2.1-48.9 58.3.2-.2 48.9zm-.1 20l-.5 186.9-58-.2.3-186.9 58.2.2zm-49.2-124.8c5.7-5.5 13.3-8.4 21.2-8.1 15.5.5 28.4 13.8 28.3 29.8v15.4l-58.3-.2v-16.2c0-7.9 3.2-15.2 8.8-20.7zm-28.2 288.6h-7.2l.2-99.5c3.1-1.6 5.2-4.8 5.2-8.5v-9.6c.7-.7 1.3-1.5 1.9-2.4l-.1 120z"/></svg>