<svg xmlns="http://www.w3.org/2000/svg" viewBox="0 0 1024 1024"><path opacity=".5" fill="#F5F5F5" d="M269.3 371v279.8h501.5V371H269.3zm72.6 256h-56.7V525.4h56.7V627z"/><path fill="#F5F5F5" d="M269.3 468.6h501.5v56.7H269.3z" opacity=".75"/><path fill="#F5F5F5" d="M285.1 371h472.4v97.7H285.1z" opacity=".25"/><path fill="#F5F5F5" d="M285.1 371h472.4v14.5H285.1z" opacity=".5"/><circle fill="#F5F5F5" cx="330.2" cy="441.4" r="8.4"/><circle fill="#F5F5F5" cx="302.5" cy="441.4" r="8.4"/><circle fill="#F5F5F5" cx="316.3" cy="412.3" r="8.4"/><path fill="#F5F5F5" d="M347.1 385.5h5.3v83.1h-5.3zM434.2 385.5h4v83.1h-4zM535.8 385.5h5.3v83.1h-5.3zM634.8 385.5h5.3v83.1h-5.3zM725.9 385.5h4v83.1h-4z"/><path fill="#F5F5F5" d="M341.8 409.2h15.8v6.6h-15.8zM357.7 430.3h5.3v14.5h-5.3zM740.4 430.3h6.6v14.5h-6.6zM467.2 443.5h14.5v6.6h-14.5zM467.2 433h14.5v6.6h-14.5zM467.2 422.4h14.5v6.6h-14.5zM467.2 411.9h14.5v6.6h-14.5zM467.2 401.3h14.5v6.6h-14.5zM516 434.3h6.6v15.8H516zM512.1 422.4h14.5v6.6h-14.5zM512.1 411.9h14.5v6.6h-14.5zM512.1 401.3h14.5v6.6h-14.5z"/><circle fill="#F5F5F5" cx="384.3" cy="444.6" r="5.1"/><circle fill="#F5F5F5" cx="384.3" cy="427.5" r="5.1"/><circle fill="#F5F5F5" cx="384.3" cy="410.4" r="5.1"/><g><circle fill="#F5F5F5" cx="402.8" cy="444.6" r="5.1"/><circle fill="#F5F5F5" cx="402.8" cy="427.5" r="5.1"/></g><g><circle fill="#F5F5F5" cx="496.5" cy="444.6" r="5.1"/><circle fill="#F5F5F5" cx="496.5" cy="427.5" r="5.1"/></g><g><circle fill="#F5F5F5" cx="421.3" cy="444.6" r="5.1"/><circle fill="#F5F5F5" cx="421.3" cy="427.5" r="5.1"/><circle fill="#F5F5F5" cx="421.3" cy="410.4" r="5.1"/></g><g><circle fill="#F5F5F5" cx="452.9" cy="444.6" r="5.1"/><circle fill="#F5F5F5" cx="452.9" cy="427.5" r="5.1"/><circle fill="#F5F5F5" cx="452.9" cy="410.4" r="5.1"/></g><g><circle fill="#F5F5F5" cx="660.1" cy="444.6" r="5.1"/><path fill="#F5F5F5" d="M694.4 450.7c-3.4 0-6.1-2.8-6.1-6.1s2.8-6.1 6.1-6.1 6.1 2.8 6.1 6.1-2.7 6.1-6.1 6.1zm0-10.3c-2.3 0-4.1 1.9-4.1 4.1s1.9 4.1 4.1 4.1 4.1-1.9 4.1-4.1-1.8-4.1-4.1-4.1z"/><circle fill="#F5F5F5" cx="660.1" cy="427.5" r="5.1"/><circle fill="#F5F5F5" cx="660.1" cy="410.4" r="5.1"/></g><g><circle fill="#F5F5F5" cx="565.1" cy="444.6" r="5.1"/><circle fill="#F5F5F5" cx="565.1" cy="427.5" r="5.1"/><circle fill="#F5F5F5" cx="565.1" cy="410.4" r="5.1"/><g><circle fill="#F5F5F5" cx="590.8" cy="444.6" r="5.1"/><circle fill="#F5F5F5" cx="590.8" cy="427.5" r="5.1"/><circle fill="#F5F5F5" cx="590.8" cy="410.4" r="5.1"/></g><g><circle fill="#F5F5F5" cx="616.6" cy="444.6" r="5.1"/><circle fill="#F5F5F5" cx="616.6" cy="427.5" r="5.1"/><circle fill="#F5F5F5" cx="616.6" cy="410.4" r="5.1"/></g></g><g><path fill="#F5F5F5" d="M686.3 401.3h15.8v6.6h-15.8z"/></g><g><path fill="#F5F5F5" d="M688.9 487.1h51.5v23.8h-51.5z"/></g><path opacity=".75" fill="#F5F5F5" d="M285.1 525.4h56.7V627h-56.7z"/><path fill="#F5F5F5" d="M737.7 525.4v77.8h-13.2v-77.8h-9.2v77.8h-13.2v-77.8h-19.8v77.8h-13.2v-77.8h-9.2v77.8h-13.2v-77.8h-9.3v77.8h-13.1v-77.8h-18.5v77.8h-13.2v-77.8h-9.3v77.8h-13.2v-77.8h-18.4v77.8h-13.2v-77.8h-9.3v77.8H516v-77.8h-9.2v77.8h-13.2v-77.8h-18.5v77.8h-13.2v-77.8h-9.2v77.8h-13.2v-77.8h-19.8v77.8h-13.2v-77.8h-9.2v77.8h-13.2v-77.8h-9.3v77.8h-13.2v-77.8h-19.7v125.3h415.6V525.4z"/></svg>