<svg xmlns="http://www.w3.org/2000/svg" viewBox="0 0 1024 1024"><path fill="#BBB" d="M488.3 134.3h51.5v753.1h-51.5z"/><circle cx="513.3" cy="813.9" r="12.9"/><circle cx="513.3" cy="584" r="12.9"/><circle cx="513.3" cy="530.5" r="12.9"/><circle cx="513.3" cy="477" r="12.9"/><circle cx="513.3" cy="423.5" r="12.9"/><circle cx="513.3" cy="370" r="12.9"/><circle cx="513.3" cy="316.5" r="12.9"/><path d="M488 250.1c7.1 0 12.6-5.8 12.6-12.9s-5.4-12.9-12.5-12.9h.2V250c0 .1-.4.1-.3.1z"/><path fill="#8A8A8A" d="M538.8 269c2.7 0 5 2.2 5 5 0 2.7-2.2 5-5 5h-49.5c-2.7 0-5-2.2-5-5 0-2.7 2.2-5 5-5h49.5zM538.8 760.5c2.7 0 5 2.2 5 5 0 2.7-2.2 5-5 5h-49.5c-2.7 0-5-2.2-5-5 0-2.7 2.2-5 5-5h49.5zM543.8 136.8v12.7c0 1.4-1.2 2.6-2.6 2.6h-54.3c-1.4 0-2.6-1.2-2.6-2.6v-12.7c0-1.4 1.2-2.6 2.6-2.6h54.3c1.4.1 2.6 1.2 2.6 2.6zM543.8 872.1v12.7c0 1.4-1.2 2.6-2.6 2.6h-54.3c-1.4 0-2.6-1.2-2.6-2.6v-12.7c0-1.4 1.2-2.6 2.6-2.6h54.3c1.4 0 2.6 1.1 2.6 2.6z"/></svg>