<svg xmlns="http://www.w3.org/2000/svg" viewBox="0 0 1024 1024"><g opacity=".75"><path fill="#555" d="M279.8 510.8h4v97.7h-4z"/><path fill="#2D2D2D" d="M269.3 371h501.5v279.8H269.3z"/><path fill="#F5F5F5" d="M341.8 525.4h415.7v125.4H341.8z"/><path d="M361.6 525.4h13.2v77.9h-13.2zM384.1 525.4h13.2v77.9h-13.2zM406.5 525.4h13.2v77.9h-13.2zM439.5 525.4h13.2v77.9h-13.2zM461.9 525.4h13.2v77.9h-13.2zM493.6 525.4h13.2v77.9h-13.2zM516 525.4h13.2v77.9H516zM538.5 525.4h13.2v77.9h-13.2zM570.1 525.4h13.2v77.9h-13.2zM592.6 525.4h13.2v77.9h-13.2zM624.3 525.4h13.2v77.9h-13.2zM646.7 525.4h13.2v77.9h-13.2zM669.1 525.4h13.2v77.9h-13.2zM702.1 525.4h13.2v77.9h-13.2zM724.5 525.4h13.2v77.9h-13.2zM285.1 525.4h56.7V627h-56.7z"/><path fill="#555" d="M269.3 468.6h501.5v56.7H269.3z"/><path d="M285.1 371h472.4v97.7H285.1z"/><path fill="#484848" d="M285.1 371h472.4v14.5H285.1z"/><circle fill="#8A8A8A" cx="330.2" cy="441.4" r="8.4"/><circle fill="#8A8A8A" cx="302.5" cy="441.4" r="8.4"/><circle fill="#8A8A8A" cx="316.3" cy="412.3" r="8.4"/><path fill="#555" d="M347.1 385.5h5.3v83.1h-5.3zM754.9 373.6h5.3v95h-5.3zM434.2 385.5h4v83.1h-4zM535.8 385.5h5.3v83.1h-5.3z"/><g><path fill="#555" d="M634.8 385.5h5.3v83.1h-5.3z"/></g><g><path fill="#555" d="M725.9 385.5h4v83.1h-4z"/></g><g><path fill="#707070" d="M341.8 409.2h15.8v6.6h-15.8z"/></g><g><path fill="#707070" d="M357.7 430.3h5.3v14.5h-5.3z"/></g><g><path fill="#707070" d="M740.4 430.3h6.6v14.5h-6.6z"/></g><g><path fill="#515151" d="M467.2 443.5h14.5v6.6h-14.5zM467.2 433h14.5v6.6h-14.5zM467.2 422.4h14.5v6.6h-14.5zM467.2 411.9h14.5v6.6h-14.5zM467.2 401.3h14.5v6.6h-14.5z"/></g><g><path fill="#515151" d="M516 434.3h6.6v15.8H516z"/><path fill="#707070" d="M512.1 422.4h14.5v6.6h-14.5zM512.1 411.9h14.5v6.6h-14.5zM512.1 401.3h14.5v6.6h-14.5z"/></g><g><circle fill="#8A8A8A" cx="384.3" cy="444.6" r="5.1"/><circle fill="#8A8A8A" cx="384.3" cy="427.5" r="5.1"/><circle fill="#8A8A8A" cx="384.3" cy="410.4" r="5.1"/></g><g><circle fill="#D6D6D6" cx="402.8" cy="444.6" r="5.1"/><circle fill="#D6D6D6" cx="402.8" cy="427.5" r="5.1"/></g><g><circle fill="#D6D6D6" cx="496.5" cy="444.6" r="5.1"/><circle fill="#D6D6D6" cx="496.5" cy="427.5" r="5.1"/></g><g><circle fill="#8A8A8A" cx="421.3" cy="444.6" r="5.1"/><circle fill="#8A8A8A" cx="421.3" cy="427.5" r="5.1"/><circle fill="#8A8A8A" cx="421.3" cy="410.4" r="5.1"/></g><g><circle fill="#8A8A8A" cx="452.9" cy="444.6" r="5.1"/><circle fill="#8A8A8A" cx="452.9" cy="427.5" r="5.1"/><circle fill="#8A8A8A" cx="452.9" cy="410.4" r="5.1"/></g><g><circle fill="#8A8A8A" cx="660.1" cy="444.6" r="5.1"/><path fill="#8A8A8A" d="M694.4 450.7c-3.4 0-6.1-2.8-6.1-6.1s2.8-6.1 6.1-6.1 6.1 2.8 6.1 6.1-2.7 6.1-6.1 6.1zm0-10.3c-2.3 0-4.1 1.9-4.1 4.1s1.9 4.1 4.1 4.1 4.1-1.9 4.1-4.1-1.8-4.1-4.1-4.1z"/><circle fill="#515151" cx="660.1" cy="427.5" r="5.1"/><circle fill="#8A8A8A" cx="660.1" cy="410.4" r="5.1"/></g><g><circle fill="#8A8A8A" cx="565.1" cy="444.6" r="5.1"/><circle fill="#8A8A8A" cx="565.1" cy="427.5" r="5.1"/><circle fill="#8A8A8A" cx="565.1" cy="410.4" r="5.1"/><g><circle fill="#8A8A8A" cx="590.8" cy="444.6" r="5.1"/><circle fill="#8A8A8A" cx="590.8" cy="427.5" r="5.1"/><circle fill="#8A8A8A" cx="590.8" cy="410.4" r="5.1"/></g><g><circle fill="#8A8A8A" cx="616.6" cy="444.6" r="5.1"/><circle fill="#8A8A8A" cx="616.6" cy="427.5" r="5.1"/><circle fill="#8A8A8A" cx="616.6" cy="410.4" r="5.1"/></g></g><g><path fill="#515151" d="M686.3 401.3h15.8v6.6h-15.8z"/></g><g><path fill="#2D2D2D" d="M688.9 487.1h51.5v23.8h-51.5z"/></g></g></svg>