<svg xmlns="http://www.w3.org/2000/svg" viewBox="0 0 1024 1024"><g class="white"><path fill="#BBB" d="M609 704c-56.5-33-59.9-225.2-59.9-225.2h-16.8s-4.4 192.2-61.1 224.9c-3.9 2.2-2.2 8.2 2.3 8.2l133.3.4c4.4-.1 6.1-6.1 2.2-8.3z"/><path fill="#BBB" d="M426.7 805.4l1-453.5 18.8.1-1 453.5c0 2.1 1.5 3 2.3 3.3.9.3 2.7.6 4.1-1 .6-.6 1.1-1.5 1.1-2.3l.8-604c0-13.1 5.1-25.3 14.5-34.4 9.4-9.1 21.9-13.9 35-13.5 25.8.8 46.7 22.8 46.7 49l-1.3 445.5-18.8-.1 1.3-445.5c0-16-12.8-29.3-28.3-29.8-7.9-.2-15.5 2.6-21.2 8.1-5.7 5.5-8.8 12.8-8.9 20.7l-1.1 604c0 5.5-2.1 10.9-5.8 15-6.3 7.1-16 9.5-24.9 6.1-8.8-3.4-14.4-11.7-14.3-21.2z"/><path fill="#BBB" d="M540.39 492.498l-.052 18.8-76.5-.216.053-18.8zM540.98 285.62l-.057 20.1-76.5-.215.057-20.1zM541.225 217.881l-.053 18.8-76.5-.216.053-18.8zM425.1 361.3l.1-26.8 26.6.1-.1 26.8c0 5.3-4.3 9.6-9.6 9.6h-7.4c-5.3-.1-9.6-4.4-9.6-9.7zM463.393 469.502l-.039 13.8-27.6-.078.04-13.8zM463.856 526.166l-.039 13.8-27.6-.077.04-13.8z"/><ellipse transform="scale(-1) rotate(-72.524 -462.328 597.465)" fill="#BBB" cx="438.2" cy="339.1" rx="18.4" ry="18.5"/><ellipse transform="rotate(92.678 541.116 709.785) scale(.99999)" fill="#BBB" cx="541.1" cy="709.8" rx="41.4" ry="71.2"/><ellipse transform="rotate(92.678 540.263 711.234) scale(.99999)" fill="#828282" cx="540.3" cy="711.2" rx="32.2" ry="55.5"/><g><path fill="#BBB" d="M466 820.5c3.7-4.1 5.8-9.5 5.8-15l.6-328.9-18.9-6-.5 334.9c0 .9-.5 1.7-1.1 2.3-1.4 1.6-3.3 1.3-4.1 1-.8-.3-2.3-1.2-2.3-3.3l1-453.5-18.8-.1-1 453.5c0 9.5 5.6 17.8 14.5 21.2 8.8 3.4 18.5 1 24.8-6.1z"/><path fill="#BBB" d="M425.1 361.3l.1-26.8 26.6.1-.1 26.8c0 5.3-4.3 9.6-9.6 9.6h-7.4c-5.3-.1-9.6-4.4-9.6-9.7zM463.856 526.166l-.039 13.8-27.6-.077.04-13.8z"/><ellipse transform="scale(-1) rotate(-72.524 -462.328 597.465)" fill="#BBB" cx="438.2" cy="339.1" rx="18.4" ry="18.5"/></g></g></svg>